HIERARCHY
ROOT Hips
{
  OFFSET 5.80788e-005 67.184 3.4734
  CHANNELS 6 Xposition Yposition Zposition Zrotation Xrotation Yrotation
  JOINT Chest
  {
    OFFSET 0 8.7983 -4.7612
    CHANNELS 3 Zrotation Xrotation Yrotation
    JOINT Chest2
    {
      OFFSET 0 8.0291 0.4195
      CHANNELS 3 Zrotation Xrotation Yrotation
      JOINT Chest3
      {
        OFFSET 0 9.9351 -2.2114
        CHANNELS 3 Zrotation Xrotation Yrotation
        JOINT Neck
        {
          OFFSET 0 22.3885 -0.4656
          CHANNELS 3 Zrotation Xrotation Yrotation
          JOINT Head
          {
            OFFSET -0.0001 12.643 3.4389
            CHANNELS 3 Zrotation Xrotation Yrotation
            End Site
            {
              OFFSET 0.0001 17.6655 0.5274
            }
          }
        }
        JOINT LeftCollar
        {
          OFFSET 2.2603 21.606 7.4023
          CHANNELS 3 Zrotation Xrotation Yrotation
          JOINT LeftShoulder
          {
            OFFSET 13.5163 -1.1332 -5.0146
            CHANNELS 3 Zrotation Xrotation Yrotation
            JOINT LeftElbow
            {
              OFFSET -0.0995 -28.05 -0.2431
              CHANNELS 3 Zrotation Xrotation Yrotation
              JOINT LeftWrist
              {
                OFFSET 0.0679 -23.3996 -0.1402
                CHANNELS 3 Zrotation Xrotation Yrotation
                JOINT LeftFinger1
                {
                  OFFSET 0.7932 -9.069 2.5189
                  CHANNELS 3 Zrotation Xrotation Yrotation
                  JOINT LeftFinger11
                  {
                    OFFSET -0.8272 -3.3923 0.5977
                    CHANNELS 3 Zrotation Xrotation Yrotation
                    JOINT LeftFinger12
                    {
                      OFFSET -0.5649 -2.3158 0.4082
                      CHANNELS 3 Zrotation Xrotation Yrotation
                      End Site
                      {
                        OFFSET -0.4919 -1.6479 0.2673
                      }
                    }
                  }
                }
                JOINT LeftFinger2
                {
                  OFFSET 0.9159 -9.2044 0.2193
                  CHANNELS 3 Zrotation Xrotation Yrotation
                  JOINT LeftFinger21
                  {
                    OFFSET 0.0117 -4.1944 -0.0248
                    CHANNELS 3 Zrotation Xrotation Yrotation
                    JOINT LeftFinger22
                    {
                      OFFSET 0.0071 -2.3249 -0.0142
                      CHANNELS 3 Zrotation Xrotation Yrotation
                      End Site
                      {
                        OFFSET -0.1475 -2.0882 0.0028
                      }
                    }
                  }
                }
                JOINT LeftFinger3
                {
                  OFFSET 0.6113 -8.7231 -2.0637
                  CHANNELS 3 Zrotation Xrotation Yrotation
                  JOINT LeftFinger31
                  {
                    OFFSET -0.1927 -3.8059 -0.2383
                    CHANNELS 3 Zrotation Xrotation Yrotation
                    JOINT LeftFinger32
                    {
                      OFFSET -0.1091 -2.1688 -0.1362
                      CHANNELS 3 Zrotation Xrotation Yrotation
                      End Site
                      {
                        OFFSET -0.2358 -1.9176 -0.0906
                      }
                    }
                  }
                }
                JOINT LeftFinger4
                {
                  OFFSET -0.6151 -8.0947 -3.5641
                  CHANNELS 3 Zrotation Xrotation Yrotation
                  JOINT LeftFinger41
                  {
                    OFFSET -0.4882 -2.341 -0.6462
                    CHANNELS 3 Zrotation Xrotation Yrotation
                    JOINT LeftFinger42
                    {
                      OFFSET -0.3575 -1.7167 -0.4742
                      CHANNELS 3 Zrotation Xrotation Yrotation
                      End Site
                      {
                        OFFSET -0.4187 -1.5237 -0.3496
                      }
                    }
                  }
                }
                JOINT LeftFinger0
                {
                  OFFSET -1.42 -1.8761 1.4223
                  CHANNELS 3 Zrotation Xrotation Yrotation
                  JOINT LeftFinger01
                  {
                    OFFSET -1.1471 -3.4929 2.6334
                    CHANNELS 3 Zrotation Xrotation Yrotation
                    JOINT LeftFinger02
                    {
                      OFFSET -0.823 -2.3 1.6571
                      CHANNELS 3 Zrotation Xrotation Yrotation
                      End Site
                      {
                        OFFSET -0.5822 -1.6914 1.1582
                      }
                    }
                  }
                }
              }
            }
          }
        }
        JOINT RightCollar
        {
          OFFSET -2.2603 21.606 7.4023
          CHANNELS 3 Zrotation Xrotation Yrotation
          JOINT RightShoulder
          {
            OFFSET -13.5187 -1.1334 -5.0155
            CHANNELS 3 Zrotation Xrotation Yrotation
            JOINT RightElbow
            {
              OFFSET 0.0994 -28.0499 -0.2431
              CHANNELS 3 Zrotation Xrotation Yrotation
              JOINT RightWrist
              {
                OFFSET -0.0679 -23.3996 -0.1402
                CHANNELS 3 Zrotation Xrotation Yrotation
                JOINT RightFinger1
                {
                  OFFSET -0.7932 -9.0691 2.5189
                  CHANNELS 3 Zrotation Xrotation Yrotation
                  JOINT RightFinger11
                  {
                    OFFSET 0.8272 -3.3923 0.5977
                    CHANNELS 3 Zrotation Xrotation Yrotation
                    JOINT RightFinger12
                    {
                      OFFSET 0.565 -2.3158 0.4082
                      CHANNELS 3 Zrotation Xrotation Yrotation
                      End Site
                      {
                        OFFSET 0.4919 -1.6479 0.2673
                      }
                    }
                  }
                }
                JOINT RightFinger2
                {
                  OFFSET -0.916 -9.2044 0.2193
                  CHANNELS 3 Zrotation Xrotation Yrotation
                  JOINT RightFinger21
                  {
                    OFFSET -0.0117 -4.1944 -0.0248
                    CHANNELS 3 Zrotation Xrotation Yrotation
                    JOINT RightFinger22
                    {
                      OFFSET -0.0071 -2.3249 -0.0142
                      CHANNELS 3 Zrotation Xrotation Yrotation
                      End Site
                      {
                        OFFSET 0.1475 -2.0882 0.0028
                      }
                    }
                  }
                }
                JOINT RightFinger3
                {
                  OFFSET -0.6113 -8.7231 -2.0637
                  CHANNELS 3 Zrotation Xrotation Yrotation
                  JOINT RightFinger31
                  {
                    OFFSET 0.1927 -3.8059 -0.2383
                    CHANNELS 3 Zrotation Xrotation Yrotation
                    JOINT RightFinger32
                    {
                      OFFSET 0.1091 -2.1688 -0.1362
                      CHANNELS 3 Zrotation Xrotation Yrotation
                      End Site
                      {
                        OFFSET 0.2358 -1.9176 -0.0906
                      }
                    }
                  }
                }
                JOINT RightFinger4
                {
                  OFFSET 0.6151 -8.0947 -3.564
                  CHANNELS 3 Zrotation Xrotation Yrotation
                  JOINT RightFinger41
                  {
                    OFFSET 0.4882 -2.341 -0.6462
                    CHANNELS 3 Zrotation Xrotation Yrotation
                    JOINT RightFinger42
                    {
                      OFFSET 0.3574 -1.7166 -0.4742
                      CHANNELS 3 Zrotation Xrotation Yrotation
                      End Site
                      {
                        OFFSET 0.4187 -1.5237 -0.3496
                      }
                    }
                  }
                }
                JOINT RightFinger0
                {
                  OFFSET 1.4199 -1.8761 1.4221
                  CHANNELS 3 Zrotation Xrotation Yrotation
                  JOINT RightFinger01
                  {
                    OFFSET 1.1472 -3.4929 2.6336
                    CHANNELS 3 Zrotation Xrotation Yrotation
                    JOINT RightFinger02
                    {
                      OFFSET 0.8229 -2.3 1.6571
                      CHANNELS 3 Zrotation Xrotation Yrotation
                      End Site
                      {
                        OFFSET 0.5822 -1.6914 1.1582
                      }
                    }
                  }
                }
              }
            }
          }
        }
      }
    }
  }
  JOINT RightHip
  {
    OFFSET -9.412 3.9771 -0.7758
    CHANNELS 3 Zrotation Xrotation Yrotation
    JOINT RightKnee
    {
      OFFSET -0.7531 -40.938 0
      CHANNELS 3 Zrotation Xrotation Yrotation
      JOINT RightAnkle
      {
        OFFSET 0 -40.1986 0
        CHANNELS 3 Zrotation Xrotation Yrotation
        JOINT RightToe
        {
          OFFSET 0 -4.4182 9.239
          CHANNELS 3 Zrotation Xrotation Yrotation
          End Site
          {
            OFFSET 0 0 6.1981
          }
        }
      }
    }
  }
  JOINT LeftHip
  {
    OFFSET 9.4119 3.9773 -0.7758
    CHANNELS 3 Zrotation Xrotation Yrotation
    JOINT LeftKnee
    {
      OFFSET 0.7532 -40.9383 0
      CHANNELS 3 Zrotation Xrotation Yrotation
      JOINT LeftAnkle
      {
        OFFSET 0 -40.1986 0
        CHANNELS 3 Zrotation Xrotation Yrotation
        JOINT LeftToe
        {
          OFFSET 0 -4.4182 9.239
          CHANNELS 3 Zrotation Xrotation Yrotation
          End Site
          {
            OFFSET 0 0 6.1981
          }
        }
      }
    }
  }
}
MOTION
Frames:	4
Frame Time:	0.0333333
5.80788e-005 67.184 3.4734 0 0 -0 0 0 -0 0 0 -0 0 0 -0 0 0 -0 0 0 -0 0 0 -12.5014 88.1196 14.2451 10.6914 -0.00160068 -0.00239207 0.000740045 -8.4365e-005 7.00714e-005 -9.52055e-007 9.93923e-017 -1.98785e-016 -1.59028e-015 9.93923e-017 -5.96354e-016 -1.59028e-015 -9.93923e-017 -5.96354e-016 -1.59028e-015 9.93923e-017 -1.98785e-016 -1.59028e-015 -0.0128176 0.00232552 8.52707e-005 9.93923e-017 5.96354e-016 -0 9.93923e-017 -1.98785e-016 -1.59028e-015 -0.0160551 0.00299681 0.000857156 -2.48481e-016 0 3.18055e-015 9.93923e-017 -1.98785e-016 -1.59028e-015 -0.0125865 0.0031206 0.00282719 0 1.98785e-016 -0 9.93923e-017 -1.98785e-016 -1.59028e-015 9.93923e-017 -5.96354e-016 -1.59028e-015 -9.93923e-017 -5.96354e-016 -1.59028e-015 -0.865644 0.16582 7.03859 -88.0329 10.2057 -10.5567 0.0015593 -0.00248883 -0.000788628 7.87605e-005 4.10553e-005 1.24965e-005 -3.97569e-016 -7.95139e-016 3.18055e-015 -1.98785e-016 -3.97569e-016 3.18055e-015 -1.98785e-016 0 3.18055e-015 -3.97569e-016 -7.95139e-016 3.18055e-015 0.0129473 0.00231697 -8.70038e-005 9.93923e-017 -7.95139e-016 1.59028e-015 -3.97569e-016 -7.95139e-016 3.18055e-015 0.0163314 0.00303369 -0.000872333 3.97569e-016 7.95139e-016 -3.18055e-015 -3.97569e-016 -7.95139e-016 3.18055e-015 0.0145763 0.00367772 -0.00326275 9.93923e-017 -3.97569e-016 -0 -3.97569e-016 -7.95139e-016 3.18055e-015 -1.98785e-016 -3.97569e-016 3.18055e-015 -1.98785e-016 0 3.18055e-015 3.42485 1.36937 -0.0640303 0.000136572 0.69354 0.00145564 -3.42573 -2.06297 -0.0607933 -3.19502e-024 0 -1.48106e-024 -3.42498 1.36123 0.0639712 -6.769e-005 0.712612 -0.0012277 3.42582 -2.07388 0.0612819 2.55305e-023 0 -2.31416e-026 
42.7919 -9.51458 9.30466 -1.85659e-008 -26.8531 -1.16042e-007 -0.0114521 -3.20732 -0.140325 -0.0308586 -6.4146 -0.281956 -0.0308588 -6.41461 -0.281957 1.63736e-006 19.2501 -5.83795e-006 5.24701e-008 9.51859 -2.16935e-008 -15.0542 15.1166 -8.87705 32.101 -36.8844 34.989 2.60221 -21.6257 -35.2771 -57.7211 18.1224 -8.32824 3.18055e-015 2.38542e-015 4.77083e-015 1.27222e-014 1.59028e-015 9.54166e-015 -3.18055e-015 5.56597e-015 3.18055e-015 3.18055e-015 2.38542e-015 4.77083e-015 -0.012832 0.00233186 9.08339e-005 4.05264e-006 1.18298e-005 -2.68365e-006 3.18055e-015 2.38542e-015 4.77083e-015 -0.0160658 0.00301147 0.000858809 -9.54166e-015 -3.97569e-015 -0 3.18055e-015 2.38542e-015 4.77083e-015 -0.0125734 0.00313435 0.00283241 3.18055e-015 0 1.59028e-015 3.18055e-015 2.38542e-015 4.77083e-015 1.27222e-014 1.59028e-015 9.54166e-015 -3.18055e-015 5.56597e-015 3.18055e-015 14.1866 15.0379 3.89868 -28.3613 -37.8395 -29.4086 -3.45965 -22.9837 34.4499 57.4806 19.0371 9.943 -1.76556e-031 -6.36111e-015 -1.59028e-015 -6.36111e-015 1.59028e-015 6.36111e-015 -3.3007e-006 4.89777e-007 4.87288e-007 -1.76556e-031 -6.36111e-015 -1.59028e-015 0.0129458 0.00231591 -8.68418e-005 -6.79554e-008 -3.6862e-006 5.58433e-006 -1.76556e-031 -6.36111e-015 -1.59028e-015 0.0163883 0.00304137 -0.000872736 -3.53113e-031 -6.36111e-015 -3.18055e-015 -1.76556e-031 -6.36111e-015 -1.59028e-015 0.0145489 0.00367375 -0.00324571 -6.36111e-015 1.11319e-014 3.18055e-015 -1.76556e-031 -6.36111e-015 -1.59028e-015 -6.36111e-015 1.59028e-015 6.36111e-015 -3.3007e-006 4.89777e-007 4.87288e-007 -55.4596 -44.4528 -126.742 2.15782 55.5232 -2.46501 -3.17102 14.7345 -7.99327 -4.35337e-007 3.6858e-007 -2.33678e-006 55.4343 -44.4781 126.7 -2.19905 55.5139 2.47405 3.17071 14.7415 8.00009 0 9.54166e-015 -0 
39.8407 -4.20307 8.85512 1.32773e-008 -25.0011 3.99878e-008 -0.0120593 -2.65928 -0.130304 -0.0302294 -5.31851 -0.261593 -0.0302294 -5.31851 -0.261593 1.40158e-006 17.4755 -5.81428e-006 -6.50885e-008 8.05573 1.68329e-007 -13.5188 12.8548 -10.2713 35.9103 -33.0672 33.5927 2.47549 -19.486 -32.8398 -53.3852 16.2958 -7.92803 -3.18055e-015 -9.54166e-015 1.59028e-015 -6.36111e-015 -1.43125e-014 7.95139e-015 -6.36111e-015 -6.36111e-015 -1.59028e-015 -3.18055e-015 -9.54166e-015 1.59028e-015 -0.0128387 0.0023395 8.74206e-005 8.82781e-032 3.18055e-015 -1.59028e-015 -3.18055e-015 -9.54166e-015 1.59028e-015 -0.0160314 0.00300902 0.000862824 7.06225e-031 1.27222e-014 -3.18055e-015 -3.18055e-015 -9.54166e-015 1.59028e-015 -0.012581 0.0031291 0.00283469 1.27222e-014 6.36111e-015 1.59028e-015 -3.18055e-015 -9.54166e-015 1.59028e-015 -6.36111e-015 -1.43125e-014 7.95139e-015 -6.36111e-015 -6.36111e-015 -1.59028e-015 12.682 12.7997 5.2569 -32.7844 -34.3762 -28.5527 -3.2633 -20.7285 32.1053 53.1756 17.0782 9.41168 -8.82781e-031 -1.59028e-014 -3.18055e-015 -7.94503e-031 -1.43125e-014 -3.18055e-015 2.26351e-006 -9.12462e-007 1.10448e-006 -8.82781e-031 -1.59028e-014 -3.18055e-015 0.0129207 0.00231667 -9.38896e-005 0 0 -1.59028e-015 -8.82781e-031 -1.59028e-014 -3.18055e-015 0.0163269 0.00302007 -0.000863543 -2.28642e-006 2.07193e-006 2.25439e-006 -8.82781e-031 -1.59028e-014 -3.18055e-015 0.0145853 0.00368157 -0.00326435 9.54166e-015 -3.18055e-015 7.95139e-015 -8.82781e-031 -1.59028e-014 -3.18055e-015 -7.94503e-031 -1.43125e-014 -3.18055e-015 2.26351e-006 -9.12462e-007 1.10448e-006 -52.5178 -50.9138 -121.916 2.01008 51.5105 -2.24913 -3.30964 13.4168 -7.38051 -5.87591e-006 -1.14166e-006 -6.12055e-006 52.517 -50.9155 121.891 -2.0529 51.526 2.2566 3.30983 13.4236 7.38669 -6.36111e-015 -1.59028e-014 1.59028e-015 
39.8407 -4.20206 8.7147 6.35272e-009 -25.0011 -9.96666e-008 -0.0134294 -2.35059 -0.130108 -0.0322469 -4.70116 -0.261097 -0.0322469 -4.70118 -0.261098 1.15519e-006 17.057 -5.5145e-006 5.86536e-008 7.29936 5.34048e-008 -13.1357 11.701 -11.3156 36.4754 -33.0513 33.9822 2.52073 -18.9055 -32.8506 -53.174 15.6101 -7.79956 -6.36111e-015 -1.59028e-015 -3.18055e-015 -0 -6.36111e-015 -0 3.18055e-015 0 3.18055e-015 -6.36111e-015 -1.59028e-015 -3.18055e-015 -0.0128331 0.00231132 7.83194e-005 -3.18055e-015 -3.18055e-015 3.18055e-015 -6.36111e-015 -1.59028e-015 -3.18055e-015 -0.0160773 0.00298386 0.000852807 3.18055e-015 1.11319e-014 -6.36111e-015 -6.36111e-015 -1.59028e-015 -3.18055e-015 -0.0125316 0.00309007 0.00280231 -6.36111e-015 4.77083e-015 -6.36111e-015 -6.36111e-015 -1.59028e-015 -3.18055e-015 -0 -6.36111e-015 -0 3.18055e-015 0 3.18055e-015 12.3204 11.6533 6.30134 -33.3693 -34.3982 -28.9846 -3.29176 -20.1357 32.1376 52.9702 16.3642 9.24874 -3.18055e-015 -1.27222e-014 -6.36111e-015 -3.18055e-015 -7.95139e-015 -9.54166e-015 3.18055e-015 -1.43125e-014 -7.95139e-015 -3.18055e-015 -1.27222e-014 -6.36111e-015 0.0129744 0.00230475 -8.55386e-005 1.16685e-006 1.16823e-006 -1.04151e-006 -3.18055e-015 -1.27222e-014 -6.36111e-015 0.0162836 0.00301111 -0.000852472 6.36111e-015 3.18055e-015 4.77083e-015 -3.18055e-015 -1.27222e-014 -6.36111e-015 0.0145373 0.00365866 -0.00325105 -6.36111e-015 9.54166e-015 1.11319e-014 -3.18055e-015 -1.27222e-014 -6.36111e-015 -3.18055e-015 -7.95139e-015 -9.54166e-015 3.18055e-015 -1.43125e-014 -7.95139e-015 -52.51 -50.9138 -121.894 2.08104 51.0493 -2.29318 -3.31361 13.4386 -7.37165 -6.44707e-006 -5.6804e-006 -5.19392e-006 52.5109 -50.9145 121.87 -2.12282 51.0634 2.2981 3.31387 13.4455 7.3778 1.59028e-015 3.18055e-015 -0 
